<?xml version="1.0" standalone="no"?>
<!DOCTYPE svg PUBLIC "-//W3C//DTD SVG 20010904//EN"
 "http://www.w3.org/TR/2001/REC-SVG-20010904/DTD/svg10.dtd">
<svg version="1.0" xmlns="http://www.w3.org/2000/svg"
 width="689.000000pt" height="683.000000pt" viewBox="0 0 689.000000 683.000000"
 preserveAspectRatio="xMidYMid meet">

<g transform="translate(0.000000,683.000000) scale(0.100000,-0.100000)"
fill="#000000" stroke="none">
<path d="M3300 6473 c-19 -1 -87 -8 -150 -14 -300 -28 -685 -131 -958 -255
-504 -229 -983 -645 -1278 -1109 -242 -379 -369 -687 -449 -1090 -171 -859 55
-1780 604 -2463 595 -740 1468 -1164 2396 -1165 636 0 1227 192 1764 572 157
112 242 183 377 320 308 308 529 640 688 1031 69 172 107 299 151 514 86 415
87 798 1 1211 -78 376 -152 577 -327 885 -117 205 -187 307 -341 488 -449 532
-1039 884 -1698 1016 -147 29 -197 37 -355 51 -145 14 -334 17 -425 8z m421
-108 c361 -37 616 -103 924 -240 375 -166 627 -342 925 -645 437 -444 721
-1032 816 -1685 21 -150 29 -458 15 -605 -38 -392 -124 -701 -290 -1045 -142
-294 -316 -539 -546 -771 -173 -174 -298 -278 -485 -403 -487 -325 -1031 -491
-1615 -492 -624 -1 -1202 187 -1726 562 -369 264 -688 632 -889 1024 -174 341
-269 644 -322 1030 -16 121 -16 544 0 665 63 456 198 844 418 1201 309 502
767 907 1303 1154 204 94 496 184 711 219 266 43 528 54 761 31z"/>
<path d="M4172 4504 c-100 -50 -156 -149 -212 -372 -25 -101 -65 -350 -58
-358 2 -1 37 7 79 18 l76 20 7 97 c19 267 76 464 146 501 17 9 25 2 57 -47 36
-54 42 -58 80 -61 57 -4 83 22 83 82 0 54 -34 100 -95 127 -55 26 -102 24
-163 -7z"/>
<path d="M880 4419 c-141 -22 -228 -113 -238 -250 -3 -51 0 -75 15 -110 82
-184 312 -231 454 -93 20 20 45 54 54 75 22 49 22 49 227 5 l158 -33 47 -49
c27 -27 62 -56 78 -65 27 -14 40 -40 114 -230 46 -118 117 -297 159 -399 46
-115 73 -196 72 -215 -9 -110 -5 -141 22 -177 53 -69 146 -84 218 -35 60 40
75 71 72 144 l-2 65 59 72 c33 39 99 121 146 181 158 202 149 192 217 211 114
32 171 124 147 234 -17 74 -46 110 -111 140 -79 36 -158 21 -222 -43 -76 -77
-82 -175 -14 -269 26 -35 29 -45 19 -60 -18 -29 -297 -372 -313 -386 -11 -9
-23 -9 -47 -1 -22 8 -40 8 -62 0 -29 -10 -31 -9 -48 32 -10 23 -22 53 -26 67
-4 14 -34 90 -65 170 -72 178 -190 493 -190 505 0 5 13 23 30 40 35 36 53 109
39 161 -12 41 -52 90 -90 109 -64 34 -164 5 -208 -61 -18 -26 -30 -34 -45 -30
-12 3 -95 19 -186 36 -156 29 -179 38 -180 68 0 24 -38 88 -71 120 -60 59
-144 85 -229 71z m128 -125 c66 -49 91 -162 50 -224 -68 -100 -192 -105 -271
-11 -63 76 -39 197 48 242 50 25 133 22 173 -7z m775 -185 c24 -30 21 -66 -9
-95 -30 -31 -67 -27 -101 12 -31 34 -29 68 4 94 33 26 79 21 106 -11z m983
-317 c55 -44 58 -101 8 -148 -49 -47 -93 -47 -140 0 -45 45 -47 95 -5 137 24
23 38 29 73 29 26 0 52 -7 64 -18z m-563 -753 c25 -11 47 -47 47 -76 0 -27
-41 -63 -71 -63 -15 0 -40 10 -55 23 -43 37 -32 96 21 117 27 12 31 12 58 -1z"/>
<path d="M5755 4113 c-11 -2 -56 -11 -100 -19 -109 -21 -272 -84 -364 -141
-42 -26 -104 -76 -139 -111 l-63 -64 -57 54 c-143 136 -392 235 -637 253 -119
9 -145 -1 -145 -54 0 -47 8 -51 95 -51 34 0 102 -7 151 -15 214 -37 355 -107
498 -247 55 -54 101 -98 102 -98 2 0 33 36 69 79 76 92 182 177 275 220 81 37
227 80 302 88 l56 6 4 -79 c2 -44 5 -290 5 -547 1 -347 -2 -469 -10 -472 -7
-1 -57 -13 -112 -24 -192 -42 -357 -115 -490 -217 -26 -19 -49 -34 -51 -32 -2
2 -6 48 -10 101 l-7 97 -53 0 -54 0 0 -130 c0 -82 -4 -130 -10 -130 -6 0 -36
13 -68 29 -155 78 -336 120 -552 128 -159 6 -222 -4 -240 -38 -15 -27 -4 -56
23 -63 12 -3 86 -6 163 -6 261 0 482 -59 668 -178 28 -18 58 -32 68 -32 10 0
65 22 121 50 222 108 491 142 797 99 105 -14 157 -12 166 9 10 19 18 1223 9
1259 -8 33 -35 43 -148 56 l-102 12 -5 98 c-4 72 -9 100 -20 107 -15 10 -97
12 -135 3z m302 -327 c4 -4 8 -256 8 -559 l0 -552 -35 3 c-19 2 -127 4 -240 5
-208 2 -244 -2 -432 -47 -32 -8 -58 -11 -58 -6 0 10 116 70 199 104 81 33 274
76 339 76 88 0 82 -33 82 503 0 260 0 476 0 481 0 10 126 3 137 -8z"/>
<path d="M1410 3885 c-7 -8 -10 -27 -7 -42 2 -16 55 -161 116 -323 62 -162
155 -410 208 -550 53 -140 110 -290 128 -332 l33 -77 -25 -48 c-21 -41 -24
-59 -21 -120 3 -61 8 -78 33 -115 17 -23 50 -56 74 -73 40 -28 49 -30 130 -30
80 0 92 3 137 30 64 40 109 122 108 199 -1 29 -7 62 -13 75 -14 25 -19 17 275
396 191 246 235 300 245 300 21 0 158 -121 194 -171 22 -31 86 -120 143 -198
56 -77 130 -179 164 -226 l62 -85 -3 -73 c-2 -58 2 -82 19 -117 63 -131 231
-176 359 -98 88 54 125 180 85 295 -14 43 -14 48 5 84 18 34 75 225 68 229 -1
1 -20 7 -42 14 -22 7 -45 14 -50 17 -6 2 -23 -42 -39 -100 -36 -133 -36 -133
-75 -116 -52 21 -135 15 -195 -14 -29 -14 -56 -26 -59 -26 -4 0 -31 33 -60 73
-120 162 -195 266 -247 341 -49 73 -52 80 -35 90 123 73 155 119 155 228 0 79
-19 124 -72 175 -63 61 -182 81 -263 44 -73 -33 -145 -132 -145 -199 0 -21
-49 -89 -210 -292 -292 -367 -298 -376 -321 -415 -12 -19 -25 -35 -29 -35 -5
0 -26 10 -47 22 -29 17 -52 22 -103 22 -36 0 -77 -4 -91 -8 -24 -7 -27 -4 -48
43 -12 28 -51 131 -87 229 -36 97 -88 238 -116 312 -28 74 -95 254 -149 399
-54 145 -104 268 -111 272 -21 14 -65 10 -78 -6z m1684 -439 c41 -17 86 -80
86 -119 0 -38 -35 -103 -65 -123 -36 -24 -118 -20 -156 7 -56 40 -72 99 -44
166 30 72 104 101 179 69z m626 -936 c51 -37 64 -136 22 -185 -33 -40 -66 -55
-115 -55 -42 0 -54 5 -82 33 -46 46 -62 105 -44 153 33 87 137 113 219 54z
m-1564 11 c40 -24 69 -95 60 -144 -7 -40 -60 -94 -104 -106 -86 -25 -172 46
-172 141 0 98 128 163 216 109z"/>
<path d="M4080 3729 c-86 -14 -191 -71 -245 -132 -73 -83 -108 -163 -113 -261
-11 -218 105 -390 305 -451 63 -19 223 -19 286 0 102 31 198 101 196 143 0 9
-27 38 -59 64 l-59 47 -33 -31 c-51 -48 -103 -68 -182 -68 -118 0 -209 65
-241 174 -56 187 53 348 235 347 77 0 123 -16 181 -62 l39 -31 27 20 c16 11
45 38 66 60 l38 39 -40 36 c-98 88 -258 131 -401 106z"/>
<path d="M3399 3716 c-2 -2 -3 -191 -1 -420 l2 -416 98 0 97 0 -3 420 -2 420
-94 0 c-51 0 -95 -2 -97 -4z"/>
<path d="M4620 3300 l0 -420 96 0 95 0 -2 235 c-1 129 1 236 4 237 6 3 121
-178 196 -309 l42 -73 48 0 49 0 105 178 c58 97 111 189 118 204 6 15 16 25
20 22 5 -3 9 -114 9 -248 l0 -242 76 -2 c42 -1 80 -5 85 -7 17 -11 20 48 17
440 l-3 400 -81 3 -82 3 -19 -33 c-11 -18 -62 -100 -112 -183 -51 -82 -109
-180 -129 -217 -20 -37 -40 -68 -44 -68 -10 0 -36 39 -145 220 -55 91 -116
191 -137 223 l-37 57 -84 0 -85 0 0 -420z"/>
</g>
</svg>
